<?xml version="1.0" encoding="UTF-8"?>
<svg width="62px" height="53px" viewBox="0 0 62 53" version="1.1" xmlns="http://www.w3.org/2000/svg" xmlns:xlink="http://www.w3.org/1999/xlink">
    <!-- Generator: Sketch 53 (72520) - https://sketchapp.com -->
    <title>delivery-truck</title>
    <desc>Created with Sketch.</desc>
    <g id="Page-1" stroke="none" stroke-width="1" fill="none" fill-rule="evenodd">
        <g id="delivery-truck" fill="#6BC4C8" fill-rule="nonzero">
            <path d="M33.6,6.5 L23.6,6.5 C21.1,2.6 16.7,0.4 12.1,0.8 C7.5,1.2 3.5,4.1 1.7,8.4 C-0.1,12.7 0.7,17.5 3.6,21.1 L3.6,43.4 C3.6,45.5 5.3,47.2 7.4,47.2 L10.1,47.2 C10.6,50.1 13.1,52.2 16,52.2 C18.9,52.2 21.4,50.1 21.9,47.2 L42.9,47.2 C43.4,50.1 45.9,52.2 48.8,52.2 C51.7,52.2 54.2,50.1 54.7,47.2 L57.3,47.2 C59.4,47.2 61.1,45.5 61.1,43.4 L61.1,30.6 C61.1,30.6 61.1,30.6 61.1,30.6 C61.1,30.6 61.1,30.6 61.1,30.5 C61.1,30.5 61.1,30.5 61.1,30.5 C61.1,30.5 61.1,30.5 61.1,30.4 C61.1,30.4 61.1,30.4 61.1,30.4 C61.1,30.4 61.1,30.4 61.1,30.4 C61.1,30.4 61.1,30.4 61.1,30.4 C61.1,30.4 61.1,30.4 61.1,30.4 C61.1,30.4 61.1,30.4 61.1,30.4 C61.1,30.4 61.1,30.4 61.1,30.4 C61.1,30.4 61.1,30.4 61.1,30.4 C61.1,30.4 61.1,30.4 61.1,30.4 C61.1,30.4 61.1,30.4 61.1,30.4 C61.1,30.4 61.1,30.4 61.1,30.4 C61.1,30.4 61.1,30.4 61.1,30.4 C61.1,30.4 61.1,30.4 61.1,30.4 L53.8,22.4 C53.1,21.6 52,21.2 51,21.2 L37.4,21.2 L37.4,10.3 C37.4,8.2 35.7,6.5 33.6,6.5 Z M13.1,2.8 C18.8,2.8 23.5,7.5 23.5,13.2 C23.5,18.9 18.8,23.6 13.1,23.6 C7.4,23.6 2.7,18.9 2.7,13.2 C2.7,7.5 7.4,2.8 13.1,2.8 Z M5.6,43.4 L5.6,23 C10,26.4 16.2,26.4 20.7,23 C25.2,19.6 26.8,13.6 24.6,8.4 L33.6,8.4 C34.6,8.4 35.5,9.2 35.5,10.3 L35.5,45.2 L21.9,45.2 C21.4,42.3 18.9,40.2 16,40.2 C13.1,40.2 10.6,42.3 10.1,45.2 L7.5,45.2 C6.4,45.2 5.6,44.4 5.6,43.4 Z M16,50.2 C13.8,50.2 12,48.4 12,46.2 C12,44 13.8,42.2 16,42.2 C18.2,42.2 20,44 20,46.2 C20,48.4 18.2,50.2 16,50.2 Z M48.7,50.2 C46.5,50.2 44.7,48.4 44.7,46.2 C44.7,44 46.5,42.2 48.7,42.2 C50.9,42.2 52.7,44 52.7,46.2 C52.7,48.4 50.9,50.2 48.7,50.2 Z M59.1,43.4 C59.1,44.4 58.3,45.3 57.2,45.3 L54.5,45.3 C54,42.4 51.5,40.3 48.6,40.3 C45.7,40.3 43.2,42.4 42.7,45.3 L37.3,45.3 L37.3,31.6 L59,31.6 L59,43.4 L59.1,43.4 Z M50.7,22.7 C51.2,22.7 51.7,22.9 52.1,23.3 L57.9,29.6 L37.4,29.6 L37.4,22.7 L50.7,22.7 Z" id="Shape"></path>
            <path d="M13.2,14.2 L19.1,14.2 C19.7,14.2 20.1,13.8 20.1,13.2 C20.1,12.6 19.7,12.2 19.1,12.2 L14.2,12.2 L14.2,7.3 C14.2,6.7 13.8,6.3 13.2,6.3 C12.6,6.3 12.2,6.7 12.2,7.3 L12.2,13.2 C12.2,13.8 12.6,14.2 13.2,14.2 Z" id="Path"></path>
        </g>
    </g>
</svg>