<?xml version="1.0" encoding="UTF-8"?>
<svg width="45px" height="59px" viewBox="0 0 45 59" version="1.1" xmlns="http://www.w3.org/2000/svg" xmlns:xlink="http://www.w3.org/1999/xlink">
    <!-- Generator: Sketch 53 (72520) - https://sketchapp.com -->
    <title>files</title>
    <desc>Created with Sketch.</desc>
    <g id="Page-1" stroke="none" stroke-width="1" fill="none" fill-rule="evenodd">
        <g id="files" fill="#8AC2C6" fill-rule="nonzero">
            <path d="M43.8,0.3 L1.9,0.3 C1.2,0.3 0.7,0.8 0.7,1.5 L0.7,57.8 C0.7,58.5 1.2,59 1.9,59 L27,59 C27.1,59 27.2,59 27.2,59 C27.2,59 27.3,59 27.3,59 C27.3,59 27.4,59 27.4,59 C27.5,59 27.5,59 27.5,58.9 C27.5,58.9 27.5,58.9 27.6,58.9 C27.7,58.9 27.7,58.8 27.8,58.8 C27.8,58.8 27.8,58.8 27.8,58.8 L44.6,42 C44.7,41.9 44.7,41.9 44.7,41.8 C44.7,41.8 44.7,41.8 44.7,41.7 C44.7,41.7 44.8,41.6 44.8,41.5 C44.8,41.5 44.8,41.4 44.8,41.4 C44.8,41.4 44.8,41.3 44.8,41.3 C44.8,41.2 44.8,41.1 44.8,41.1 L44.8,1.5 C45,0.9 44.4,0.3 43.8,0.3 Z M28.2,54.9 L28.2,42.2 L40.9,42.2 L28.2,54.9 Z M42.6,39.8 L27,39.8 C26.3,39.8 25.8,40.3 25.8,41 L25.8,56.6 L3.1,56.6 L3.1,2.7 L42.6,2.7 L42.6,39.8 L42.6,39.8 Z" id="Shape"></path>
            <path d="M20.7,16.2 C20.2,15.7 19.5,15.7 19,16.2 L15,20.2 L15,6.3 L12.6,6.3 L12.6,20.2 L8.7,16.3 C8.2,15.8 7.5,15.8 7,16.3 C6.5,16.8 6.5,17.5 7,18 L13,24 C13.2,24.2 13.5,24.4 13.8,24.4 C14.1,24.4 14.4,24.3 14.6,24 L20.6,18 C21.1,17.5 21.1,16.7 20.7,16.2 Z" id="Path"></path>
        </g>
    </g>
</svg>