<?xml version="1.0" encoding="UTF-8"?>
<svg width="319px" height="165px" viewBox="0 0 319 165" version="1.1" xmlns="http://www.w3.org/2000/svg" xmlns:xlink="http://www.w3.org/1999/xlink">
    <!-- Generator: Sketch 53 (72520) - https://sketchapp.com -->
    <title>Group</title>
    <desc>Created with Sketch.</desc>
    <g id="Page-1" stroke="none" stroke-width="1" fill="none" fill-rule="evenodd">
        <g id="conceptic_logo" fill="#FFFFFF" fill-rule="nonzero">
            <g id="Group" transform="translate(0.949414, 0.000000)">
                <path d="M143.350586,79.3 C143.350586,74.4 140.750586,73.5 137.650586,77.2 L95.9505858,126.7 C92.7505858,130.4 89.2505858,133.5 88.0505858,133.5 C86.8505858,133.5 83.2505858,130.5 80.0505858,126.8 L46.0505858,87.7 C42.8505858,84 42.7505858,77.9 45.9505858,74.2 L102.450586,6.8 C105.450586,3.1 103.950586,0 99.0505858,0 L75.4505858,0 C70.5505858,0 63.9505858,3 60.7505858,6.8 L2.35058584,74.8 C-0.849414158,78.5 -0.749414158,84.6 2.45058584,88.2 L64.0505858,157.7 C67.2505858,161.4 73.9505858,164.4 78.8505858,164.4 L96.2505858,164.4 C101.150586,164.4 107.750586,161.3 110.850586,157.6 L137.550586,126 C140.750586,122.3 143.250586,115.2 143.250586,110.3 L143.250586,79.3 L143.350586,79.3 Z" id="Path"></path>
                <path d="M174.750586,85.1 C174.750586,90 177.350586,90.9 180.450586,87.2 L222.150586,37.7 C225.350586,34 228.850586,30.9 230.050586,30.9 C231.250586,30.9 234.850586,33.9 238.050586,37.6 L272.050586,76.7 C275.250586,80.4 275.350586,86.5 272.150586,90.2 L215.650586,157.6 C212.550586,161.4 213.950586,164.4 218.850586,164.4 L242.450586,164.4 C247.350586,164.4 253.950586,161.4 257.150586,157.6 L315.550586,89.6 C318.750586,85.9 318.650586,79.8 315.450586,76.2 L253.950586,6.7 C250.750586,3 244.050586,0 239.150586,0 L221.750586,0 C216.850586,0 210.250586,3.1 207.150586,6.8 L180.450586,38.4 C177.250586,42.1 174.750586,49.2 174.750586,54.1 L174.750586,85.1 Z" id="Path"></path>
            </g>
        </g>
    </g>
</svg>