<?xml version="1.0" encoding="UTF-8"?>
<svg width="22px" height="29px" viewBox="0 0 22 29" version="1.1" xmlns="http://www.w3.org/2000/svg" xmlns:xlink="http://www.w3.org/1999/xlink">
    <!-- Generator: Sketch 53 (72520) - https://sketchapp.com -->
    <title>Shape</title>
    <desc>Created with Sketch.</desc>
    <g id="Page-1" stroke="none" stroke-width="1" fill="none" fill-rule="evenodd">
        <g id="placeholder-filled-point" fill="#8AC6C8" fill-rule="nonzero">
            <path d="M11,0 C5.2,0 0.4,4.7 0.4,10.6 C0.4,12.1 0.7,13.6 1.3,14.9 C3.9,20.7 9,26.8 10.5,28.5 C10.6,28.6 10.8,28.7 10.9,28.7 C11,28.7 11.2,28.6 11.3,28.5 C12.8,26.8 17.9,20.7 20.5,14.9 C21.1,13.6 21.4,12.1 21.4,10.6 C21.5,4.7 16.8,0 11,0 Z M11,16 C8,16 5.5,13.5 5.5,10.5 C5.5,7.5 8,5 11,5 C14,5 16.5,7.5 16.5,10.5 C16.5,13.6 14,16 11,16 Z" id="Shape"></path>
        </g>
    </g>
</svg>