<?xml version="1.0" encoding="UTF-8"?>
<svg width="57px" height="61px" viewBox="0 0 57 61" version="1.1" xmlns="http://www.w3.org/2000/svg" xmlns:xlink="http://www.w3.org/1999/xlink">
    <!-- Generator: Sketch 53 (72520) - https://sketchapp.com -->
    <title>pdf</title>
    <desc>Created with Sketch.</desc>
    <g id="Page-1" stroke="none" stroke-width="1" fill="none" fill-rule="evenodd">
        <g id="pdf" fill="#8AC2C6" fill-rule="nonzero">
            <path d="M56.8,16.7 L41.5,0.9 C41.3,0.7 41,0.5 40.7,0.5 L17.9,0.5 C15.4,0.5 13.3,2.6 13.3,5.1 L13.3,21.2 L4,21.2 C2.1,21.2 0.5,22.8 0.5,24.7 L0.5,42 C0.5,43.9 2.1,45.5 4,45.5 L13.2,45.5 L13.2,55.9 C13.2,58.4 15.3,60.5 17.8,60.5 L52.4,60.5 C54.9,60.5 57,58.4 57,55.9 L57,17.5 C57.1,17.2 57,17 56.8,16.7 Z M40.9,3.6 L53.4,16.6 L40.9,16.6 L40.9,3.6 Z M4,43.2 C3.4,43.2 2.8,42.7 2.8,42 L2.8,24.7 C2.8,24.1 3.3,23.5 4,23.5 L35.2,23.5 C35.8,23.5 36.4,24 36.4,24.7 L36.4,42 C36.4,42.6 35.9,43.2 35.2,43.2 L4,43.2 Z M54.8,55.9 C54.8,57.2 53.8,58.2 52.5,58.2 L17.9,58.2 C16.6,58.2 15.6,57.2 15.6,55.9 L15.6,45.5 L35.2,45.5 C37.1,45.5 38.7,43.9 38.7,42 L38.7,24.7 C38.7,22.8 37.1,21.2 35.2,21.2 L15.5,21.2 L15.5,5.1 C15.5,3.8 16.5,2.8 17.8,2.8 L38.6,2.8 L38.6,17.8 C38.6,18.4 39.1,19 39.8,19 L54.8,19 L54.8,55.9 L54.8,55.9 Z" id="Shape"></path>
            <path d="M14.3,29.8 C13.9,29.3 13.4,29 12.9,28.8 C12.5,28.7 11.7,28.7 10.5,28.7 L7.3,28.7 L7.3,38.6 L9.3,38.6 L9.3,34.9 L10.6,34.9 C11.5,34.9 12.2,34.9 12.7,34.8 C13.1,34.7 13.4,34.6 13.7,34.3 C14,34.1 14.3,33.7 14.5,33.3 C14.7,32.9 14.8,32.4 14.8,31.8 C14.9,30.9 14.7,30.3 14.3,29.8 Z M12.6,32.5 C12.4,32.7 12.2,32.9 12,33 C11.7,33.1 11.2,33.2 10.4,33.2 L9.3,33.2 L9.3,30.4 L10.3,30.4 C11,30.4 11.5,30.4 11.7,30.5 C12,30.6 12.3,30.7 12.5,30.9 C12.7,31.1 12.8,31.4 12.8,31.8 C12.9,32 12.8,32.3 12.6,32.5 Z" id="Shape"></path>
            <path d="M24.5,31.4 C24.3,30.8 24,30.2 23.6,29.8 C23.2,29.4 22.7,29.1 22.1,28.9 C21.7,28.8 21,28.7 20.2,28.7 L16.5,28.7 L16.5,38.6 L20.3,38.6 C21,38.6 21.6,38.5 22.1,38.4 C22.7,38.2 23.2,37.9 23.5,37.6 C24,37.2 24.3,36.6 24.6,35.8 C24.8,35.2 24.9,34.5 24.9,33.7 C24.9,32.8 24.8,32 24.5,31.4 Z M22.6,35.4 C22.5,35.8 22.3,36.2 22.1,36.4 C21.9,36.6 21.6,36.7 21.3,36.8 C21.1,36.9 20.6,36.9 20.1,36.9 L18.6,36.9 L18.6,36.9 L18.6,30.3 L19.5,30.3 C20.3,30.3 20.9,30.3 21.1,30.4 C21.5,30.5 21.8,30.6 22,30.9 C22.2,31.1 22.4,31.4 22.6,31.9 C22.8,32.4 22.8,32.9 22.8,33.7 C22.8,34.4 22.7,35 22.6,35.4 Z" id="Shape"></path>
            <polygon id="Path" points="33.4 30.3 33.4 28.7 26.6 28.7 26.6 38.6 28.6 38.6 28.6 34.4 32.7 34.4 32.7 32.7 28.6 32.7 28.6 30.3"></polygon>
        </g>
    </g>
</svg>