<?xml version="1.0" encoding="utf-8"?>
<!-- Generator: Adobe Illustrator 21.0.0, SVG Export Plug-In . SVG Version: 6.00 Build 0)  -->
<svg version="1.1" id="Слой_2" xmlns="http://www.w3.org/2000/svg" xmlns:xlink="http://www.w3.org/1999/xlink" x="0px" y="0px"
	 viewBox="0 0 101 91" style="enable-background:new 0 0 101 91;" xml:space="preserve">
<style type="text/css">
	.st0{fill:#FFFFFF;}
</style>
<g>
	<path class="st0" d="M72,45.4L41.6,24.6c-0.4-0.3-1-0.3-1.4-0.1c-0.5,0.2-0.7,0.7-0.7,1.2v41.5c0,0.5,0.3,1,0.7,1.2
		c0.2,0.1,0.4,0.2,0.6,0.2c0.3,0,0.5-0.1,0.8-0.2L72,47.6c0.4-0.3,0.6-0.7,0.6-1.1S72.4,45.6,72,45.4z M42.2,64.6V28.4l26.6,18.1
		L42.2,64.6z"/>
	<path class="st0" d="M50.5,5C27.6,5,9,23.6,9,46.5S27.6,88,50.5,88S92,69.4,92,46.5S73.4,5,50.5,5z M50.5,85.2
		c-21.4,0-38.7-17.4-38.7-38.7S29.1,7.8,50.5,7.8s38.7,17.4,38.7,38.7S71.9,85.2,50.5,85.2z"/>
</g>
</svg>
