<?xml version="1.0" encoding="UTF-8"?>
<svg width="47px" height="61px" viewBox="0 0 47 61" version="1.1" xmlns="http://www.w3.org/2000/svg" xmlns:xlink="http://www.w3.org/1999/xlink">
    <!-- Generator: Sketch 53 (72520) - https://sketchapp.com -->
    <title>security</title>
    <desc>Created with Sketch.</desc>
    <g id="Page-1" stroke="none" stroke-width="1" fill="none" fill-rule="evenodd">
        <g id="security" fill="#6BC4C8" fill-rule="nonzero">
            <path d="M46.1,12.8 L23.7,0.9 C23.4,0.7 23,0.7 22.6,0.9 L0.9,12.8 C0.5,13 0.3,13.4 0.3,13.8 L0.3,29.4 C0.3,42.2 7.9,53.8 19.6,58.9 L22.6,60.2 C22.9,60.3 23.2,60.3 23.5,60.2 L26.9,58.7 C38.9,53.7 46.7,42 46.7,29 L46.7,13.8 C46.7,13.4 46.4,13 46.1,12.8 Z M44.4,29 C44.4,41.1 37.2,51.9 26.1,56.6 L26.1,56.6 L23.1,57.9 L20.5,56.8 C9.6,52 2.5,41.3 2.5,29.4 L2.5,14.4 L23.1,3.1 L44.3,14.4 L44.3,29 L44.4,29 Z" id="Shape"></path>
            <path d="M15,28.6 C14.6,28.1 13.9,28.1 13.4,28.5 C12.9,28.9 12.9,29.6 13.3,30.1 L19.2,37 C19.6,37.5 20.3,37.5 20.7,37.1 L34.4,26 C34.9,25.6 34.9,24.9 34.6,24.4 C34.2,23.9 33.5,23.9 33,24.2 L20.2,34.7 L15,28.6 Z" id="Path"></path>
        </g>
    </g>
</svg>