<?xml version="1.0" encoding="utf-8"?>
<!-- Generator: Adobe Illustrator 21.0.0, SVG Export Plug-In . SVG Version: 6.00 Build 0)  -->
<svg version="1.1" id="Capa_1" xmlns="http://www.w3.org/2000/svg" xmlns:xlink="http://www.w3.org/1999/xlink" x="0px" y="0px"
	 viewBox="0 0 38.1 38.1" style="enable-background:new 0 0 38.1 38.1;" xml:space="preserve">
<style type="text/css">
	.st0{fill:#FFFFFF;}
</style>
<g>
	<g>
		<path class="st0" d="M30.6,12h-5.9V6.4c0-0.2-0.2-0.5-0.5-0.5h-11c-0.2,0-0.5,0.2-0.5,0.5V12H6.9c-0.2,0-0.4,0.2-0.4,0.4L5,32.1
			c0,0.1,0,0.2,0.1,0.3c0.1,0.1,0.2,0.1,0.3,0.1H32c0.1,0,0.2-0.1,0.3-0.1c0.1-0.1,0.1-0.2,0.1-0.3L31,12.4C31,12.2,30.8,12,30.6,12
			z M24.2,14.9c0.2,0,0.4,0.2,0.4,0.4c0,0.2-0.2,0.4-0.4,0.4c-0.2,0-0.4-0.2-0.4-0.4C23.8,15.1,24,14.9,24.2,14.9z M13.7,6.9h10.1
			V12H13.7C13.7,12,13.7,6.9,13.7,6.9z M13.3,14.9c0.2,0,0.4,0.2,0.4,0.4c0,0.2-0.2,0.4-0.4,0.4c-0.2,0-0.4-0.2-0.4-0.4
			C12.8,15.1,13,14.9,13.3,14.9z M5.9,31.7l1.4-18.7h5.5v1.1c-0.5,0.2-0.9,0.7-0.9,1.2c0,0.7,0.6,1.3,1.3,1.3c0.7,0,1.3-0.6,1.3-1.3
			c0-0.6-0.4-1-0.9-1.2v-1.1h10.1v1.1c-0.5,0.2-0.9,0.7-0.9,1.2c0,0.7,0.6,1.3,1.3,1.3c0.7,0,1.3-0.6,1.3-1.3c0-0.6-0.4-1-0.9-1.2
			v-1.1h5.5l1.4,18.7H5.9z"/>
		<path class="st0" d="M32,32.9H5.5c-0.2,0-0.5-0.1-0.6-0.3c-0.2-0.2-0.2-0.4-0.2-0.6l1.5-19.6c0-0.4,0.4-0.8,0.8-0.8h5.5V6.4
			c0-0.5,0.4-0.8,0.8-0.8h11c0.5,0,0.8,0.4,0.8,0.8v5.2h5.5c0.4,0,0.8,0.3,0.8,0.8l1.5,19.6c0,0.2-0.1,0.5-0.2,0.6
			C32.5,32.8,32.3,32.9,32,32.9z M6.9,12.4C6.9,12.4,6.9,12.4,6.9,12.4L5.4,32.1l0.1,0.1H32l0.4-0.1l-0.4,0l-1.5-19.6
			c0,0,0-0.1-0.1-0.1h-6.3v-6c0,0,0-0.1-0.1-0.1h-11c0,0-0.1,0-0.1,0.1v6H6.9z M32,32H5.5L7,12.5h6.2v1.8l-0.2,0.1
			c-0.4,0.1-0.6,0.5-0.6,0.9c0,0.5,0.4,0.9,0.9,0.9s0.9-0.4,0.9-0.9c0-0.4-0.2-0.7-0.6-0.9l-0.2-0.1v-1.8h10.8v1.8l-0.2,0.1
			c-0.4,0.1-0.6,0.5-0.6,0.9c0,0.5,0.4,0.9,0.9,0.9c0.5,0,0.9-0.4,0.9-0.9c0-0.4-0.2-0.7-0.6-0.9l-0.2-0.1v-1.8h6.2L32,32z
			 M6.3,31.3h24.8l-1.4-18h-4.7v0.5c0.5,0.3,0.9,0.9,0.9,1.5c0,0.9-0.8,1.7-1.7,1.7s-1.7-0.8-1.7-1.7c0-0.6,0.3-1.2,0.9-1.5v-0.5
			h-9.3v0.5c0.5,0.3,0.9,0.9,0.9,1.5c0,0.9-0.8,1.7-1.7,1.7s-1.7-0.8-1.7-1.7c0-0.6,0.3-1.2,0.9-1.5v-0.5H7.7L6.3,31.3z M24.2,16.1
			c-0.4,0-0.8-0.4-0.8-0.8c0-0.4,0.4-0.8,0.8-0.8s0.8,0.4,0.8,0.8C25,15.7,24.7,16.1,24.2,16.1z M24.2,15.3
			C24.2,15.3,24.2,15.3,24.2,15.3L24.2,15.3z M13.3,16.1c-0.4,0-0.8-0.4-0.8-0.8c0-0.4,0.4-0.8,0.8-0.8s0.8,0.4,0.8,0.8
			C14,15.7,13.7,16.1,13.3,16.1z M13.3,15.3C13.2,15.3,13.2,15.3,13.3,15.3L13.3,15.3z M24.2,12.4H13.3V6.5h10.8V12.4z M14.1,11.6
			h9.3V7.3h-9.3V11.6z"/>
	</g>
</g>
</svg>
