<?xml version="1.0" encoding="UTF-8"?>
<svg width="66px" height="65px" viewBox="0 0 66 65" version="1.1" xmlns="http://www.w3.org/2000/svg" xmlns:xlink="http://www.w3.org/1999/xlink">
    <!-- Generator: Sketch 53 (72520) - https://sketchapp.com -->
    <title>tag</title>
    <desc>Created with Sketch.</desc>
    <g id="Page-1" stroke="none" stroke-width="1" fill="none" fill-rule="evenodd">
        <g id="tag" fill="#8AC2C6" fill-rule="nonzero">
            <path d="M18.2,62.8 C20.8,65.4 24.9,65.4 27.5,62.8 L56.4,33.9 C56.6,33.7 56.7,33.4 56.7,33.1 L56.6,10.6 L65,2.2 C65.4,1.8 65.4,1.1 65,0.6 C64.6,0.2 63.9,0.2 63.4,0.6 L55,9 L32.5,8.9 C32.2,8.9 31.9,9 31.7,9.2 L2.8,38.1 C0.2,40.7 0.2,44.8 2.8,47.4 L18.2,62.8 Z M4.4,39.7 L33,11.1 L54.4,11.2 L54.5,32.6 L25.9,61.2 C24.2,62.9 21.5,62.9 19.8,61.2 L4.4,45.8 C2.7,44.1 2.7,41.4 4.4,39.7 Z" id="Shape"></path>
            <path d="M40.3,31.8 C43.4,31.8 46.1,29.6 46.7,26.5 C47.3,23.4 45.7,20.4 42.8,19.2 C39.9,18 36.6,19 34.8,21.6 C33.1,24.2 33.4,27.7 35.6,29.9 C36.9,31.1 38.6,31.8 40.3,31.8 Z M37.3,22.2 C39,20.5 41.7,20.5 43.4,22.2 C45.1,23.9 45.1,26.6 43.4,28.3 C41.7,30 39,30 37.3,28.3 C36.5,27.5 36,26.4 36,25.2 C36,24 36.4,23 37.3,22.2 Z" id="Shape"></path>
        </g>
    </g>
</svg>