<?xml version="1.0" encoding="UTF-8"?>
<svg width="330px" height="510px" viewBox="0 0 330 510" version="1.1" xmlns="http://www.w3.org/2000/svg" xmlns:xlink="http://www.w3.org/1999/xlink">
    <title>kalyan</title>
    <g id="Page-1" stroke="none" stroke-width="1" fill="none" fill-rule="evenodd">
        <g id="kalyan" transform="translate(2.000000, 2.000000)" stroke-width="3">
            <g id="hookah_stroke" class="first_stroke active" transform="translate(191.000000, 0.000000)" stroke="#6BC4C8">
                <polygon id="Path" points="13.9 22.3 0.6 22.3 3.2 0.3 11.7 0.3"></polygon>
            </g>
            <g id="hookah_stroke" class="first_stroke active" transform="translate(121.000000, 29.000000)" stroke="#6BC4C8">
                <path d="M130.4,7.8 C102.2,7.8 50.7,7.8 22.4,7.8 C16.4,7.8 0.7,0 0.7,0 L154,0 C153.9,0 136.7,7.8 130.4,7.8 Z" id="Path"></path>
            </g>
            <g id="hookah_stroke" class="first_stroke active" transform="translate(186.000000, 43.000000)" stroke="#6BC4C8">
                <g id="Group">
                    <polyline id="Path" points="12.3 0.3 6.5 0.3 6.5 17.3 1.3 22.5 1.3 34.5 2.5 34.5 2.5 183.3 0 183.3 0 196.5 3.4 199.9 14.5 199.9"></polyline>
                    <polyline id="Path" points="12.3 0.3 18 0.3 18 17.3 23.3 22.5 23.3 34.5 22 34.5 22 183.3 24.5 183.3 24.5 196.5 21.1 199.9 13.8 199.9"></polyline>
                </g>
            </g>
            <g id="hookah_stroke" class="first_stroke active" transform="translate(170.000000, 248.000000)" stroke="#6BC4C8">
                <path d="M20.6,2.5 L35.8,2.5 L35.8,5.5 L42.8,12.5 L46,12.5 L47.3,11.2 C47.3,11.2 48.8,9.4 49.1,9.4 C49.4,9.4 50.6,10.2 50.6,10.2 L53.1,7.5 L55.8,3.2 L59.4,0.7 L63.3,4.6 L60.8,8.3 L56.9,11.5 L54.6,14 L56.2,15.7 L52.9,19.1 L52.9,31.1 L3.9,31.1 L3.9,19.3 L0.6,16 L8.1,8.5 L13,13.4 L20.8,5.6 L20.6,2.5 Z" id="Path"></path>
            </g>
            <g id="hookah_stroke" class="first_stroke active" transform="translate(184.000000, 295.000000)" stroke="#6BC4C8">
                <polygon id="Path" points="0 0 28 0 28 16.2 19.5 16.2 19.5 148.3 9 148.3 9 16.3 0 16.3"></polygon>
                <rect id="Rectangle" x="7" y="153.9" width="14.6" height="8.1"></rect>
            </g>
            <g id="hookah_stroke" class="second_stroke" transform="translate(130.000000, 287.000000)" stroke="#333333">
                <g id="Group">
                    <path d="M68.5,0.8 L43.3,0.8 L43.3,6.1 L46.2,9 C46.2,9 49.1,42.9 48.8,61.9 C48.5,80.9 49,105.7 37.6,123.1 C26.3,140.4 12.3,155.4 6.4,163.4 C0.5,171.4 -0.9,180.6 0.9,187.6 C2.7,194.6 12.4,203.9 14.9,205.6 C17.4,207.3 16.6,209.6 17.9,210.9 C19.2,212.2 29.2,217.9 45.6,218.7 C61.9,219.5 70.6,219.4 78.8,219.3" id="Path"></path>
                    <path d="M68,0.8 L93.2,0.8 L93.2,6.1 L90.3,9 C90.3,9 87.4,42.9 87.7,61.9 C88,80.9 87.5,105.7 98.9,123.1 C110.2,140.4 124.2,155.4 130.1,163.4 C135.9,171.4 137.4,180.6 135.6,187.6 C133.8,194.6 124.1,203.9 121.6,205.6 C119.1,207.3 119.9,209.6 118.6,210.9 C117.3,212.2 107.3,217.9 90.9,218.7 C74.6,219.5 74.7,219.4 66.5,219.3" id="Path"></path>
                </g>
            </g>
            <g id="hookah_stroke" class="second_stroke" transform="translate(0.000000, 206.000000)" stroke="#333333">
                <path d="M215,0.3 C215,0.3 289.4,-2.7 319,97.7 C348.6,198.1 270.7,245 270.7,245 L265.7,237 C265.7,237 337.8,190.6 309.7,97.7 C283,9.5 215,9 215,9 L215,0.3 Z" id="Path"></path>
                <path d="M182.3,3.3 C182.3,3.3 165,14.4 142,61.1 C135.6,74 128.2,89.5 120.8,105.3 C101.3,146.6 81.7,189.4 81.7,189.4 L92.7,194.1 C92.7,194.1 111.3,147.8 128.1,110.2 C137.9,88.4 142.2,79.8 150.7,61.1 C161.8,36.6 182.3,14.3 182.3,14.3 L182.3,3.3 Z" id="Path"></path>
                <path d="M120.4,105.9 C122.1,106.9 128.1,110.1 128.1,110.1" id="Path"></path>
                <polygon id="Path" points="80.3 197.3 37 295.5 42.5 298.8 88.3 200.8"></polygon>
                <path d="M81.7,233.5 L76.5,243 C76.5,243 92.8,251.2 98.5,253.3 C111.8,258.2 121.5,261.2 121.5,261.2 L123.9,251.5 C123.9,251.5 91.9,239.5 81.7,233.5 Z" id="Path"></path>
                <path d="M159.3,29.5 C159.6,28.9 159.5,28.2 158.9,27.8 C153.5,24.4 128,8.8 108,6.8 C85.5,4.5 60.3,7.7 37,27.8 C-0.7,60.4 -7,99.6 7.2,144.8 C17.9,178.6 32.4,200.2 49.2,220.3 C52.7,224.4 57.9,231.2 58.2,230.6 L62.3,222.1 C62.5,221.6 62.4,221.1 62.1,220.7 C57.8,215.9 33.2,184.5 27.7,169.7 C21.8,154 3.1,118.9 11.8,86.3 C31.3,12.8 101.4,8 127.1,20.8 C140.8,27.6 151.3,33.6 154.7,35.4 C155.3,35.7 156.1,35.5 156.4,34.9 L159.3,29.5 Z" id="Path"></path>
                <polygon id="Path" points="168.3 38.2 172 43 165.7 49.6 160.8 42.6 165.9 35.5"></polygon>
            </g>
        </g>
    </g>
</svg>
