<?xml version="1.0" encoding="UTF-8"?>
<svg width="1023px" height="165px" viewBox="0 0 1023 165" version="1.1" xmlns="http://www.w3.org/2000/svg" xmlns:xlink="http://www.w3.org/1999/xlink">
    <!-- Generator: Sketch 53 (72520) - https://sketchapp.com -->
    <title>conceptic_logo</title>
    <desc>Created with Sketch.</desc>
    <g id="Page-1" stroke="none" stroke-width="1" fill="none" fill-rule="evenodd">
        <g id="conceptic_logo" fill="#FFFFFF" fill-rule="nonzero">
            <path d="M144.3,79.3 C144.3,74.4 141.7,73.5 138.6,77.2 L96.9,126.7 C93.7,130.4 90.2,133.5 89,133.5 C87.8,133.5 84.2,130.5 81,126.8 L47,87.7 C43.8,84 43.7,77.9 46.9,74.2 L103.4,6.8 C106.4,3.1 104.9,0 100,0 L76.4,0 C71.5,0 64.9,3 61.7,6.8 L3.3,74.8 C0.1,78.5 0.2,84.6 3.4,88.2 L65,157.7 C68.2,161.4 74.9,164.4 79.8,164.4 L97.2,164.4 C102.1,164.4 108.7,161.3 111.8,157.6 L138.5,126 C141.7,122.3 144.2,115.2 144.2,110.3 L144.2,79.3 L144.3,79.3 Z" id="Path"></path>
            <path d="M175.7,85.1 C175.7,90 178.3,90.9 181.4,87.2 L223.1,37.7 C226.3,34 229.8,30.9 231,30.9 C232.2,30.9 235.8,33.9 239,37.6 L273,76.7 C276.2,80.4 276.3,86.5 273.1,90.2 L216.6,157.6 C213.5,161.4 214.9,164.4 219.8,164.4 L243.4,164.4 C248.3,164.4 254.9,161.4 258.1,157.6 L316.5,89.6 C319.7,85.9 319.6,79.8 316.4,76.2 L254.9,6.7 C251.7,3 245,0 240.1,0 L222.7,0 C217.8,0 211.2,3.1 208.1,6.8 L181.4,38.4 C178.2,42.1 175.7,49.2 175.7,54.1 L175.7,85.1 Z" id="Path"></path>
            <path d="M440.8,57.1 C437.7,58.5 431.5,59.9 423.5,59.9 C405,59.9 391.1,49.6 391.1,30.5 C391.1,12.3 405,0 425.4,0 C433.6,0 438.7,1.6 441,2.6 L439,8.7 C435.8,7.3 431.2,6.3 425.8,6.3 C410.3,6.3 400,15 400,30.2 C400,44.4 409.2,53.5 425.2,53.5 C430.4,53.5 435.6,52.6 439,51.1 L440.8,57.1 Z" id="Path"></path>
            <path d="M468.2,30.5 C468.2,12.1 481.1,0 498.7,0 C516.6,0 528.3,12.1 528.3,29.4 C528.3,49.4 514.6,60 497.9,60 C480.3,60 468.2,48.1 468.2,30.5 L468.2,30.5 Z M519.3,29.7 C519.3,18.2 512.5,6.1 498.4,6.1 C484.2,6.1 477.2,17.7 477.2,30.3 C477.2,42.5 484.8,53.8 498.2,53.8 C511.7,53.8 519.3,42.9 519.3,29.7 L519.3,29.7 Z M511.4,32.2 L485,32.2 L485,26 L511.4,26 L511.4,32.2 Z" id="Shape"></path>
            <path d="M559.8,59 L559.8,0.9 L569,0.9 L590,30.3 C594.9,37.1 598.7,43.2 601.8,49.2 L602,49.1 C601.2,41.3 601,34.3 601,25.2 L601,0.9 L609,0.9 L609,59 L600.4,59 L579.6,29.5 C575,23 570.6,16.4 567.3,10.1 L567,10.2 C567.5,17.5 567.7,24.5 567.7,34.1 L567.7,59 L559.8,59 Z" id="Path"></path>
            <path d="M690.3,57.1 C687.2,58.5 681,59.9 673,59.9 C654.5,59.9 640.6,49.6 640.6,30.5 C640.6,12.3 654.5,0 674.9,0 C683.1,0 688.2,1.6 690.5,2.6 L688.5,8.7 C685.3,7.3 680.7,6.3 675.3,6.3 C659.9,6.3 649.7,15 649.7,30.2 C649.7,44.4 658.9,53.5 674.9,53.5 C680.1,53.5 685.3,52.6 688.7,51.1 L690.3,57.1 Z" id="Path"></path>
            <path d="M763.3,59 L718.3,59 L718.3,52.7 L763.3,52.7 L763.3,59 Z M762.3,7.1 L719.4,7.1 L719.4,0.9 L762.3,0.9 L762.3,7.1 Z M759,32 L722.6,32 L722.6,25.8 L759,25.8 L759,32 Z" id="Shape"></path>
            <path d="M794.7,1.6 C798.8,1 804.1,0.5 811,0.5 C819.4,0.5 825.5,2.2 829.4,5.3 C833,8.1 835.1,12.3 835.1,17.4 C835.1,22.7 833.3,26.8 830,29.8 C825.5,34 818.2,36.2 810,36.2 C807.5,36.2 805.1,36.1 803.2,35.7 L803.2,59 L794.7,59 L794.7,1.6 Z M803.2,29.6 C805,30 807.4,30.2 810.2,30.2 C820.4,30.2 826.6,25.8 826.6,17.8 C826.6,10.1 820.5,6.4 811.1,6.4 C807.4,6.4 804.6,6.7 803.1,7 L803.1,29.6 L803.2,29.6 Z" id="Shape"></path>
            <polygon id="Path" points="875.6 7.3 855.7 7.3 855.7 0.9 904.2 0.9 904.2 7.3 884.2 7.3 884.2 59 875.6 59"></polygon>
            <rect id="Rectangle" x="932.2" y="1" width="8.5" height="58.1"></rect>
            <path d="M1021.9,57.1 C1018.8,58.5 1012.6,59.9 1004.6,59.9 C986.1,59.9 972.2,49.6 972.2,30.5 C972.2,12.3 986.1,0 1006.5,0 C1014.7,0 1019.8,1.6 1022.1,2.6 L1020.1,8.7 C1016.9,7.3 1012.3,6.3 1006.9,6.3 C991.5,6.3 981.3,15 981.3,30.2 C981.3,44.4 990.5,53.5 1006.5,53.5 C1011.7,53.5 1016.9,52.6 1020.3,51.1 L1021.9,57.1 Z" id="Path"></path>
            <path d="M391.1,105.1 C396.4,104.4 402.6,103.9 409.5,103.9 C421.9,103.9 430.7,106.4 436.6,111.3 C442.6,116.1 446,123 446,132.6 C446,142.3 442.6,150.2 436.4,155.6 C430.1,161.1 419.8,164.1 406.8,164.1 C400.6,164.1 395.5,163.8 391.1,163.4 L391.1,105.1 L391.1,105.1 Z M399.7,157.5 C401.9,157.9 405.1,157.9 408.4,157.9 C426.9,157.9 436.9,148.8 436.9,132.8 C437,118.8 428.1,109.9 409.8,109.9 C405.3,109.9 402,110.3 399.7,110.7 L399.7,157.5 L399.7,157.5 Z" id="Shape"></path>
            <path d="M520.9,163.6 L475,163.6 L475,157.2 L520.9,157.2 L520.9,163.6 Z M519.9,110.7 L476.1,110.7 L476.1,104.4 L519.9,104.4 L519.9,110.7 Z M516.5,136.1 L479.4,136.1 L479.4,129.8 L516.5,129.8 L516.5,136.1 Z" id="Shape"></path>
            <path d="M551.8,154.3 C555.7,156.4 561.3,158.2 567.3,158.2 C576.1,158.2 581.3,154.1 581.3,148.1 C581.3,142.6 577.7,139.4 568.7,136.3 C557.8,132.9 551,127.9 551,119.5 C551,110.3 559.6,103.4 572.6,103.4 C579.5,103.4 584.4,104.8 587.4,106.3 L585,112.5 C582.8,111.4 578.3,109.7 572.3,109.7 C563.2,109.7 559.7,114.5 559.7,118.6 C559.7,124.1 563.8,126.9 573,130 C584.3,133.9 590.1,138.7 590.1,147.4 C590.1,156.5 582.5,164.5 566.7,164.5 C560.2,164.5 553.2,162.8 549.6,160.7 L551.8,154.3 Z" id="Path"></path>
            <rect id="Rectangle" x="623" y="104.3" width="8.6" height="59.2"></rect>
            <path d="M718.7,160.9 C714.8,162.1 707.2,164.2 698.1,164.2 C688,164.2 679.6,161.9 673.1,156.4 C667.3,151.5 663.8,143.6 663.8,134.3 C663.9,116.6 677.6,103.7 700,103.7 C707.7,103.7 713.8,105.2 716.7,106.4 L714.6,112.6 C711,111.2 706.6,110.1 699.8,110.1 C683.5,110.1 672.9,119.1 672.9,133.9 C672.9,148.9 683.1,157.8 698.7,157.8 C704.4,157.8 708.2,157.1 710.2,156.2 L710.2,138.5 L696.6,138.5 L696.6,132.3 L718.6,132.3 L718.6,160.9 L718.7,160.9 Z" id="Path"></path>
            <path d="M752.9,163.6 L752.9,104.4 L762.3,104.4 L783.8,134.4 C788.8,141.3 792.6,147.6 795.8,153.6 L796,153.5 C795.2,145.6 795,138.4 795,129.2 L795,104.4 L803.1,104.4 L803.1,163.6 L794.4,163.6 L773.2,133.5 C768.5,126.9 764.1,120.1 760.7,113.7 L760.4,113.8 C760.9,121.3 761.1,128.4 761.1,138.2 L761.1,163.5 L752.9,163.5 L752.9,163.6 Z" id="Path"></path>
        </g>
    </g>
</svg>