<?xml version="1.0" encoding="UTF-8"?>
<svg width="7px" height="12px" viewBox="0 0 7 12" version="1.1" xmlns="http://www.w3.org/2000/svg" xmlns:xlink="http://www.w3.org/1999/xlink">
    <!-- Generator: Sketch 53 (72520) - https://sketchapp.com -->
    <title>Group 2</title>
    <desc>Created with Sketch.</desc>
    <g id="Page-1" stroke="none" stroke-width="1" fill="none" fill-rule="evenodd">
        <g id="facebook" transform="translate(-9.000000, -7.000000)" fill="#000000" fill-rule="nonzero">
            <g id="Group" transform="translate(9.000000, 7.000000)">
                <g id="Group-2" transform="translate(0.900000, 0.500000)">
                    <polygon id="Path" points="4.7 5.9 -8.8817842e-16 5.9 -8.8817842e-16 3.7 5.1 3.7"></polygon>
                    <path d="M1.1,2.2 C1.1,2.5 1.1,11 1.1,11 L3.3,11 C3.3,11 3.3,2.8 3.3,2.6 C3.3,2.4 3.4,2.2 3.7,2.2 C4.2,2.2 4.7,2.2 5.2,2.2 C5.2,1.9 5.2,0.8 5.2,8.8817842e-16 C4.6,8.8817842e-16 3.8,8.8817842e-16 3.5,8.8817842e-16 C1,1.77635684e-15 1.1,1.9 1.1,2.2 Z" id="Facebook_3_"></path>
                </g>
            </g>
        </g>
    </g>
</svg>