<?xml version="1.0" encoding="UTF-8"?>
<svg width="13px" height="12px" viewBox="0 0 13 12" version="1.1" xmlns="http://www.w3.org/2000/svg" xmlns:xlink="http://www.w3.org/1999/xlink">
    <!-- Generator: Sketch 53 (72520) - https://sketchapp.com -->
    <title>Group</title>
    <desc>Created with Sketch.</desc>
    <g id="Page-1" stroke="none" stroke-width="1" fill="none" fill-rule="evenodd">
        <g id="insta" transform="translate(-6.000000, -7.000000)" fill="#000000" fill-rule="nonzero" stroke="#000000" stroke-width="0.5">
            <g id="Group" transform="translate(7.000000, 7.000000)">
                <path d="M10.9,3.2 C10.7,2.5 10.4,1.8 9.8,1.4 C9.2,0.9 8.5,0.7 7.7,0.7 C6.2,0.7 4.7,0.7 3.2,0.7 C3,0.7 2.8,0.7 2.6,0.7 C1.9,0.8 1.3,1.2 0.8,1.8 C0.3,2.4 0,3.1 0,3.8 C0,4.6 0,5.3 0,6.1 C0,6.1 0,6.1 0,6.1 C0,6.8 0,7.6 0,8.3 C0,8.6 0,8.8 0.1,9.1 C0.3,9.8 0.7,10.4 1.2,10.8 C1.8,11.3 2.5,11.5 3.2,11.5 C4.7,11.5 6.2,11.5 7.8,11.5 C8.1,11.5 8.5,11.4 8.8,11.3 C9.5,11.1 10,10.7 10.4,10.1 C10.8,9.5 11,8.9 11,8.2 C11,6.7 11,5.2 11,3.7 C11,3.7 11,3.4 10.9,3.2 Z M10.2,9.6 C9.8,10.3 9.2,10.8 8.4,11 C8.2,11.1 8,11.1 7.7,11.1 C6.2,11.1 4.7,11.1 3.3,11.1 C2.6,11.1 2,10.9 1.5,10.5 C1,10.1 0.7,9.6 0.6,9 C0.6,8.8 0.5,8.6 0.5,8.4 C0.5,6.9 0.5,5.4 0.5,4 C0.5,3.4 0.7,2.9 1,2.4 C1.4,1.8 2,1.4 2.7,1.3 C2.9,1.3 3,1.3 3.2,1.3 C4.7,1.3 6.2,1.3 7.7,1.3 C8.5,1.3 9.1,1.6 9.7,2.1 C10.1,2.5 10.3,3 10.4,3.5 C10.4,3.7 10.5,3.9 10.5,4.1 C10.5,4.8 10.5,5.6 10.5,6.3 C10.5,7 10.5,7.8 10.5,8.5 C10.5,8.8 10.4,9.2 10.2,9.6 Z" id="Shape"></path>
                <path d="M5.5,3.4 C4,3.4 2.7,4.6 2.7,6.1 C2.7,7.6 3.9,8.9 5.5,8.9 C7,8.9 8.2,7.7 8.3,6.1 C8.2,4.6 7,3.4 5.5,3.4 Z M5.5,8.4 C4.3,8.4 3.3,7.4 3.3,6.1 C3.3,4.9 4.3,3.9 5.6,3.9 C6.8,3.9 7.9,4.9 7.9,6.2 C7.7,7.4 6.7,8.4 5.5,8.4 Z" id="Shape"></path>
                <path d="M8.5,2.6 C8.2,2.6 8,2.8 8,3.1 C8,3.4 8.2,3.6 8.5,3.6 C8.8,3.6 9,3.4 9,3.1 C9,2.9 8.8,2.6 8.5,2.6 Z" id="Path"></path>
            </g>
        </g>
    </g>
</svg>