<?xml version="1.0" encoding="UTF-8"?>
<svg width="15px" height="9px" viewBox="0 0 15 9" version="1.1" xmlns="http://www.w3.org/2000/svg" xmlns:xlink="http://www.w3.org/1999/xlink">
    <!-- Generator: Sketch 53 (72520) - https://sketchapp.com -->
    <title>Path</title>
    <desc>Created with Sketch.</desc>
    <g id="Page-1" stroke="none" stroke-width="1" fill="none" fill-rule="evenodd">
        <g id="vk" transform="translate(-5.000000, -9.000000)" fill="#000000" fill-rule="nonzero">
            <path d="M19,16.3 C19,16.2 18.7,15.7 17.7,14.7 C16.6,13.6 16.7,13.8 18.1,11.9 C18.9,10.7 19.3,10 19.1,9.7 C19,9.5 18.4,9.6 18.4,9.6 L16.4,9.6 C16.4,9.6 16.1,9.6 16,9.8 C15.8,10.2 15.7,10.7 15.3,11.5 C14.4,13.1 14,13.2 13.9,13.1 C13.6,12.9 13.6,12.2 13.6,11.7 C13.6,10.1 13.8,9.5 13.2,9.3 C13,9.2 12.9,9.2 12.3,9.2 C11.6,9.2 11,9.2 10.6,9.4 C10.4,9.5 10.2,9.8 10.3,9.8 C10.4,9.8 10.7,9.9 10.9,10.1 C11.1,10.4 11.1,11.1 11.1,11.1 C11.1,11.1 11.2,12.9 10.8,13.2 C10.5,13.4 10.2,13 9.4,11.6 C9,10.9 8.9,10.4 8.7,10 C8.3,9.6 8,9.5 8,9.5 L6.1,9.5 C6.1,9.5 5.8,9.5 5.7,9.6 C5.6,9.7 5.7,10 5.7,10 C5.7,10 7.2,13.7 8.9,15.5 C10.5,17.2 12.2,17.1 12.2,17.1 C12.2,17.1 13.2,17.1 13.4,16.9 C13.5,16.8 13.5,16.5 13.5,16.5 C13.5,16.5 13.5,15.4 14,15.2 C14.5,15 15.1,16.3 15.8,16.8 C16.3,17.1 16.5,17.1 16.7,17.1 C17.2,17.1 18.5,17.1 18.5,17.1 C18.5,17.1 19.4,17 19,16.3 Z" id="Path"></path>
        </g>
    </g>
</svg>