<?xml version="1.0" encoding="UTF-8"?>
<svg width="14px" height="10px" viewBox="0 0 14 10" version="1.1" xmlns="http://www.w3.org/2000/svg" xmlns:xlink="http://www.w3.org/1999/xlink">
    <!-- Generator: Sketch 53 (72520) - https://sketchapp.com -->
    <title>Shape</title>
    <desc>Created with Sketch.</desc>
    <g id="Page-1" stroke="none" stroke-width="1" fill="none" fill-rule="evenodd">
        <g id="youtube" transform="translate(-5.000000, -8.000000)" fill="#000000" fill-rule="nonzero">
            <path d="M16.7,8.1 L7.7,8.1 C6.5,8.1 5.4,9.1 5.4,10.4 L5.4,14.9 C5.4,16.1 6.4,17.2 7.7,17.2 L16.7,17.2 C17.9,17.2 19,16.2 19,14.9 L19,10.4 C19,9.1 18,8.1 16.7,8.1 Z M14.3,13 L10.6,15.2 C10.2,15.4 10,15.2 10,14.8 L10,10.4 C10,9.9 10.2,9.8 10.6,10 L14.3,12.2 C14.6,12.4 14.5,12.8 14.3,13 Z" id="Shape"></path>
        </g>
    </g>
</svg>